<svg width="80" height="72" viewBox="0 0 80 72" fill="none" xmlns="http://www.w3.org/2000/svg">
<path d="M39.1465 27.9098C41.0477 25.3762 40.5179 21.7945 37.963 19.9098C35.4081 18.0251 31.7957 18.5512 29.8944 21.0847L19.1978 35.3389C17.2966 37.8725 17.8265 41.4542 20.3814 43.3389C22.9363 45.2235 26.5487 44.6975 28.4499 42.1639L39.1465 27.9098Z" fill="#1E69FF" fill-opacity="0.4"/>
<path d="M65.6725 66.109C68.9133 67.5957 72.7559 66.1962 74.2554 62.9831C75.7549 59.77 74.3433 55.9601 71.1026 54.4734L42.4223 41.3161C39.1815 39.8294 35.3388 41.2289 33.8394 44.442C32.3399 47.6551 33.7514 51.465 36.9922 52.9517L65.6725 66.109Z" fill="#1E69FF" fill-opacity="0.4"/>
<path d="M55.8778 20.2145C61.5078 20.2145 66.0719 15.6893 66.0719 10.1073C66.0719 4.52517 61.5078 0 55.8778 0C50.2477 0 45.6836 4.52517 45.6836 10.1073C45.6836 15.6893 50.2477 20.2145 55.8778 20.2145Z" fill="#1E69FF"/>
<path d="M76.5576 24.0104C78.4589 21.4769 77.929 17.8951 75.3741 16.0105C72.8192 14.1258 69.2068 14.6518 67.3055 17.1854L56.609 31.4395C54.7077 33.9731 55.2376 37.5548 57.7925 39.4395C60.3474 41.3242 63.9598 40.7982 65.8611 38.2646L76.5576 24.0104Z" fill="#1E69FF"/>
<path d="M58.6618 40.138C61.5986 41.3602 64.9785 39.991 66.211 37.0797C67.4435 34.1685 66.0619 30.8176 63.125 29.5954L37.1401 18.7814C34.2033 17.5592 30.8234 18.9284 29.5909 21.8397C28.3584 24.7509 29.7401 28.1018 32.6769 29.324L58.6618 40.138Z" fill="#1E69FF"/>
<path d="M44.6538 50.8722C46.7853 48.0318 46.1908 44.016 43.3259 41.9027C40.4611 39.7893 36.4107 40.3788 34.2792 43.2192L22.284 59.2039C20.1525 62.0443 20.747 66.0601 23.6118 68.1735C26.4767 70.2868 30.527 69.6974 32.6585 66.857L44.6538 50.8722Z" fill="#1E69FF"/>
<path d="M10.9664 49.3408C7.67386 47.9706 3.88439 49.5062 2.50237 52.7706C1.12035 56.0351 2.66912 59.7922 5.96164 61.1625L24.4906 68.8736C27.7831 70.2438 31.5726 68.7083 32.9546 65.4438C34.3366 62.1794 32.7878 58.4222 29.4953 57.052L10.9664 49.3408Z" fill="#1E69FF"/>
</svg>
