<svg width="62" height="19" viewBox="0 0 62 19" fill="none" xmlns="http://www.w3.org/2000/svg">
<path d="M23.8223 8.61195C23.8223 5.65967 23.8223 4.18313 24.7398 3.26637C25.6574 2.3496 27.1331 2.34882 30.0854 2.34882H31.6512C34.6035 2.34882 36.08 2.34882 36.9968 3.26637C37.9135 4.18392 37.9143 5.65967 37.9143 8.61195V10.1777C37.9143 13.13 37.9143 14.6066 36.9968 15.5233C36.0792 16.4401 34.6035 16.4409 31.6512 16.4409H30.0854C27.1331 16.4409 25.6566 16.4409 24.7398 15.5233C23.823 14.6058 23.8223 13.13 23.8223 10.1777V8.61195Z" stroke="white" stroke-opacity="0.6" stroke-width="1.15037"/>
<path d="M34.3911 7.04625C35.0397 7.04625 35.5655 6.52048 35.5655 5.87191C35.5655 5.22334 35.0397 4.69757 34.3911 4.69757C33.7426 4.69757 33.2168 5.22334 33.2168 5.87191C33.2168 6.52048 33.7426 7.04625 34.3911 7.04625Z" fill="white" fill-opacity="0.6"/>
<path d="M30.8682 11.7436C32.1653 11.7436 33.2169 10.6921 33.2169 9.39494C33.2169 8.0978 32.1653 7.04626 30.8682 7.04626C29.5711 7.04626 28.5195 8.0978 28.5195 9.39494C28.5195 10.6921 29.5711 11.7436 30.8682 11.7436Z" stroke="white" stroke-opacity="0.6" stroke-width="1.15037"/>
<g clip-path="url(#clip0_41_2366)">
<mask id="mask0_41_2366" style="mask-type:luminance" maskUnits="userSpaceOnUse" x="0" y="1" width="16" height="17">
<path d="M0 1.53387H15.7218V17.2556H0V1.53387Z" fill="white"/>
</mask>
<g mask="url(#mask0_41_2366)">
<path d="M12.3809 2.27081H14.7919L9.52514 8.30572L15.7218 16.5192H10.8705L7.06805 11.5388L2.72211 16.5192H0.30882L5.9417 10.0621L0 2.27194H4.97481L8.40665 6.82338L12.3809 2.27081ZM11.533 15.0728H12.8694L4.24487 3.64197H2.81195L11.533 15.0728Z" fill="white" fill-opacity="0.6"/>
</g>
</g>
<g clip-path="url(#clip1_41_2366)">
<path d="M56.304 1.47009H54.0992C53.1245 1.47009 52.1898 1.85726 51.5007 2.54642C50.8115 3.23558 50.4244 4.17028 50.4244 5.14489V7.34977H48.2195V10.2896H50.4244V16.1693H53.3642V10.2896H55.5691L56.304 7.34977H53.3642V5.14489C53.3642 4.94997 53.4416 4.76303 53.5795 4.6252C53.7173 4.48737 53.9042 4.40993 54.0992 4.40993H56.304V1.47009Z" stroke="white" stroke-opacity="0.6" stroke-width="1.10244" stroke-linecap="round" stroke-linejoin="round"/>
</g>
<defs>
<clipPath id="clip0_41_2366">
<rect width="15.7218" height="15.7218" fill="white" transform="translate(0 1.53387)"/>
</clipPath>
<clipPath id="clip1_41_2366">
<rect width="17.639" height="17.639" fill="white" transform="translate(43.8098 6.10352e-05)"/>
</clipPath>
</defs>
</svg>
