<svg width="12" height="15" viewBox="0 0 12 15" fill="none" xmlns="http://www.w3.org/2000/svg">
<g clip-path="url(#clip0_29_718)">
<path d="M5.69249 7.03646C6.06681 7.03646 6.38732 6.89925 6.6541 6.62486C6.92044 6.35091 7.05361 6.02146 7.05361 5.63646C7.05361 5.25145 6.92044 4.92174 6.6541 4.64735C6.38732 4.37344 6.06681 4.23645 5.69249 4.23645C5.31818 4.23645 4.99785 4.37344 4.73155 4.64735C4.46476 4.92174 4.33137 5.25145 4.33137 5.63646C4.33137 6.02146 4.46476 6.35091 4.73155 6.62486C4.99785 6.89925 5.31818 7.03646 5.69249 7.03646ZM5.69249 14.0365C3.86633 12.4381 2.5025 10.9534 1.60099 9.58235C0.699028 8.21176 0.248047 6.94311 0.248047 5.77645C0.248047 4.02647 0.795438 2.63229 1.89023 1.59396C2.98456 0.555625 4.25197 0.0364609 5.69249 0.0364609C7.13298 0.0364609 8.40041 0.555625 9.49475 1.59396C10.5895 2.63229 11.1369 4.02647 11.1369 5.77645C11.1369 6.94311 10.6862 8.21176 9.78465 9.58235C8.8827 10.9534 7.51865 12.4381 5.69249 14.0365Z" fill="#242424"/>
<path d="M5.68533 7.86513C7.06129 7.86513 8.17677 6.74965 8.17677 5.37365C8.17677 3.99765 7.06129 2.88219 5.68533 2.88219C4.30933 2.88219 3.19385 3.99765 3.19385 5.37365C3.19385 6.74965 4.30933 7.86513 5.68533 7.86513Z" fill="#DDDBDB"/>
</g>
<defs>
<clipPath id="clip0_29_718">
<rect width="11.3709" height="14.4032" fill="white"/>
</clipPath>
</defs>
</svg>

