<svg width="32" height="32" viewBox="0 0 32 32" fill="none" xmlns="http://www.w3.org/2000/svg">
<path d="M7.15429 4.1943L12.1029 9.14288H3.53143C3.70634 8.09221 4.12521 7.0972 4.7544 6.23778C5.38359 5.37835 6.20556 4.67845 7.15429 4.1943ZM13.8057 3.42859H10.2857C10.0686 3.42859 9.85143 3.44002 9.63429 3.45145L15.3257 9.14288H19.52L13.8057 3.42859ZM21.7143 3.42859H17.0514L22.7657 9.14288H28.4686C28.2008 7.54524 27.3752 6.09432 26.1385 5.04804C24.9019 4.00177 23.3342 3.42795 21.7143 3.42859ZM14.265 22.4297L19.9793 19.2869C20.1587 19.1884 20.3084 19.0436 20.4127 18.8674C20.5169 18.6913 20.5719 18.4904 20.5719 18.2857C20.5719 18.0811 20.5169 17.8802 20.4127 17.704C20.3084 17.5279 20.1587 17.383 19.9793 17.2846L14.265 14.1417C14.091 14.046 13.8951 13.9973 13.6965 14.0004C13.498 14.0035 13.3037 14.0583 13.1327 14.1593C12.9618 14.2604 12.8201 14.4042 12.7217 14.5767C12.6233 14.7492 12.5715 14.9443 12.5714 15.1429V21.4286C12.5715 21.6272 12.6233 21.8223 12.7217 21.9948C12.8201 22.1673 12.9618 22.3111 13.1327 22.4122C13.3037 22.5132 13.498 22.568 13.6965 22.5711C13.8951 22.5741 14.091 22.5254 14.265 22.4297ZM28.5714 11.4286V21.7143C28.57 23.5325 27.8471 25.2758 26.5614 26.5614C25.2758 27.8471 23.5325 28.57 21.7143 28.5714H10.2857C8.46754 28.57 6.72424 27.8471 5.43859 26.5614C4.15294 25.2758 3.43003 23.5325 3.42857 21.7143V11.4286H28.5714Z" fill="#838383"/>
</svg>

