<svg width="32" height="32" viewBox="0 0 32 32" fill="none" xmlns="http://www.w3.org/2000/svg">
<path fill-rule="evenodd" clip-rule="evenodd" d="M16.03 5.59998C17.4956 5.59998 18.6365 5.59997 19.5562 5.66273C20.4895 5.7264 21.2535 5.85735 21.9554 6.14804C23.7195 6.8788 25.1212 8.28046 25.8519 10.0446C26.1426 10.7465 26.2736 11.5105 26.3373 12.4437C26.4 13.3635 26.4 14.5043 26.4 15.9699V16.0301C26.4 17.4957 26.4 18.6365 26.3373 19.5562C26.2736 20.4895 26.1426 21.2535 25.8519 21.9553C25.1212 23.7195 23.7195 25.1212 21.9554 25.8519C21.2535 26.1426 20.4895 26.2736 19.5562 26.3373C18.6365 26.4 17.4957 26.4 16.0301 26.4H15.9699C14.5043 26.4 13.3635 26.4 12.4438 26.3373C11.5105 26.2736 10.7465 26.1426 10.0446 25.8519C8.28049 25.1212 6.87883 23.7195 6.14807 21.9553C5.85738 21.2535 5.72643 20.4895 5.66276 19.5562C5.6 18.6365 5.60001 17.4956 5.60001 16.03V15.97C5.60001 14.5044 5.6 13.3635 5.66276 12.4437C5.72643 11.5105 5.85738 10.7465 6.14807 10.0446C6.87883 8.28046 8.28049 6.8788 10.0446 6.14804C10.7465 5.85735 11.5105 5.7264 12.4438 5.66273C13.3635 5.59997 14.5044 5.59998 15.97 5.59998H16.03ZM24 12.8C24 12.3581 23.6418 12 23.2 12H20.4545C20.2526 12 20.0559 11.9999 19.8894 12.0135C19.7066 12.0285 19.4907 12.0637 19.2736 12.1744C18.9726 12.3277 18.7278 12.5725 18.5744 12.8736C18.4638 13.0907 18.4285 13.3065 18.4135 13.4894C18.3999 13.6559 18.4 13.8525 18.4 14.0545V19.2C18.4 19.6418 18.7582 20 19.2 20C19.6418 20 20 19.6418 20 19.2V16.8H21.6C22.0418 16.8 22.4 16.4418 22.4 16C22.4 15.5581 22.0418 15.2 21.6 15.2H20V14.08C20 13.8428 20.0006 13.7129 20.0082 13.6197L20.0092 13.6091L20.0197 13.6082C20.113 13.6006 20.2428 13.6 20.48 13.6H23.2C23.6418 13.6 24 13.2418 24 12.8ZM17.2 12.8235C17.2 12.3817 16.8418 12.0235 16.4 12.0235C15.9582 12.0235 15.6 12.3817 15.6 12.8235V13.2C15.6 13.6418 15.9582 14 16.4 14C16.8418 14 17.2 13.6418 17.2 13.2V12.8235ZM17.2 15.4588C17.2 15.0169 16.8418 14.6588 16.4 14.6588C15.9582 14.6588 15.6 15.0169 15.6 15.4588V19.2235C15.6 19.6653 15.9582 20.0235 16.4 20.0235C16.8418 20.0235 17.2 19.6653 17.2 19.2235V15.4588ZM8.00001 16C8.00001 13.7909 9.79089 12 12 12H13.6C14.0418 12 14.4 12.3581 14.4 12.8C14.4 13.2418 14.0418 13.6 13.6 13.6H12C10.6745 13.6 9.60001 14.6745 9.60001 16C9.60001 17.3255 10.6745 18.4 12 18.4H12.7425C12.9634 18.4 13.1425 18.2209 13.1425 18V17.2C13.1425 16.9791 12.9634 16.8 12.7425 16.8H12C11.5582 16.8 11.2 16.4418 11.2 16C11.2 15.5581 11.5582 15.2 12 15.2H13.2C14.0867 15.2 14.7903 15.9158 14.8116 16.7807L14.8143 16.8872L14.8162 16.9601C14.8252 17.3239 14.8323 17.6769 14.8108 17.9828C14.7858 18.3383 14.7174 18.7449 14.485 19.1033C14.2338 19.4906 13.862 19.7175 13.4371 19.8429C13.0356 19.9613 12.5524 20 12 20C9.79089 20 8.00001 18.2091 8.00001 16Z" fill="#838383"/>
</svg>

