<svg id="Layer_1" enable-background="new 0 0 512 512" height="512" viewBox="0 0 512 512" width="512" xmlns="http://www.w3.org/2000/svg"><path fill="#838383" d="m256 0c-141.159 0-256 114.841-256 256s114.841 256 256 256 256-114.841 256-256-114.841-256-256-256zm-128.29 208.024c-2.129 6.232-7.956 10.155-14.194 10.155-1.608 0-3.243-.261-4.85-.81-7.84-2.678-12.024-11.204-9.346-19.043 9.057-26.513 33.966-44.326 61.984-44.326 27.998 0 52.901 17.797 61.969 44.284 2.683 7.838-1.496 16.366-9.333 19.05-7.839 2.682-16.367-1.495-19.05-9.333-4.915-14.355-18.412-24.001-33.586-24.001-15.185 0-28.686 9.654-33.594 24.024zm231.378 131.154c-21.528 36.132-61.029 58.577-103.088 58.577-41.94 0-81.383-22.35-102.938-58.326-4.258-7.106-1.949-16.318 5.158-20.576 7.109-4.257 16.32-1.947 20.577 5.158 16.167 26.982 45.749 43.744 77.204 43.744 31.544 0 61.17-16.834 77.317-43.933 4.24-7.117 13.446-9.451 20.563-5.208 7.116 4.24 9.448 13.448 5.207 20.564zm44.336-121.844c-7.84 2.682-16.367-1.495-19.05-9.333-4.915-14.355-18.412-24.001-33.586-24.001-15.185 0-28.686 9.654-33.594 24.024-2.129 6.232-7.956 10.155-14.194 10.155-1.608 0-3.243-.261-4.85-.81-7.84-2.678-12.024-11.204-9.346-19.043 9.058-26.513 33.967-44.326 61.984-44.326 27.998 0 52.901 17.797 61.969 44.284 2.683 7.838-1.496 16.366-9.333 19.05z"/></svg>