<svg width="32" height="30" viewBox="0 0 32 30" fill="none" xmlns="http://www.w3.org/2000/svg">
<path d="M2.35542 2.95007C5.92068 -0.807815 11.6065 -1.06451 15.1718 2.69324L16.0576 3.78503L17.0478 2.69324C20.5301 -0.97681 25.9291 -0.80615 29.5097 2.69324L29.7626 2.95007C33.2446 6.62076 32.3916 13.9573 29.0712 17.7313L28.6337 18.2177L28.1484 18.7401C26.2748 20.7234 23.4022 23.4383 19.5322 26.8856L17.3222 28.8387C16.5596 29.5076 15.4502 29.4976 14.6992 28.8143L11.9716 26.3182L9.54292 24.0663C6.65618 21.3682 4.48896 19.2565 3.04195 17.7313C-0.523315 13.9734 -1.20971 6.70808 2.35542 2.95007ZM28.1308 4.2616C25.2707 1.46605 21.1194 1.42622 18.5146 4.17078L15.9746 6.97156L13.6845 4.15125C10.9704 1.3511 6.60924 1.49022 3.78999 4.46179C1.17191 7.2216 1.53951 13.1229 4.47652 16.2186L5.00288 16.7665C6.48647 18.2929 8.60577 20.3396 11.3525 22.8983L13.3017 24.703L16.0253 27.1952L18.2236 25.2528L19.8017 23.8368C22.8367 21.0954 25.1381 18.8938 26.6914 17.2509L27.1611 16.7469L27.583 16.2762C30.3966 13.078 30.8159 7.08461 28.3554 4.49011L28.1308 4.2616Z" fill="#262626"/>
</svg>

