<svg width="80" height="72" viewBox="0 0 80 72" fill="none" xmlns="http://www.w3.org/2000/svg">
<path d="M39.1465 27.9098C41.0477 25.3762 40.5179 21.7945 37.963 19.9098C35.4081 18.0252 31.7957 18.5512 29.8944 21.0848L19.1978 35.3389C17.2966 37.8725 17.8265 41.4542 20.3814 43.3389C22.9363 45.2236 26.5487 44.6975 28.4499 42.164L39.1465 27.9098Z" fill="#565656"/>
<path d="M65.6728 66.109C68.9135 67.5957 72.7562 66.1962 74.2557 62.9831C75.7551 59.77 74.3436 55.9601 71.1029 54.4734L42.4225 41.3161C39.1818 39.8294 35.3391 41.2289 33.8396 44.442C32.3401 47.6551 33.7517 51.465 36.9924 52.9517L65.6728 66.109Z" fill="#565656"/>
<path d="M55.8778 20.2145C61.5078 20.2145 66.0719 15.6893 66.0719 10.1073C66.0719 4.52517 61.5078 0 55.8778 0C50.2477 0 45.6836 4.52517 45.6836 10.1073C45.6836 15.6893 50.2477 20.2145 55.8778 20.2145Z" fill="black"/>
<path d="M76.5576 24.0104C78.4589 21.4768 77.929 17.8951 75.3741 16.0104C72.8192 14.1257 69.2068 14.6518 67.3055 17.1853L56.609 31.4395C54.7077 33.9731 55.2376 37.5548 57.7925 39.4395C60.3474 41.3242 63.9598 40.7981 65.8611 38.2646L76.5576 24.0104Z" fill="black"/>
<path d="M58.6615 40.138C61.5983 41.3602 64.9783 39.991 66.2108 37.0797C67.4432 34.1685 66.0616 30.8176 63.1248 29.5954L37.1399 18.7814C34.2031 17.5592 30.8232 18.9284 29.5907 21.8397C28.3582 24.7509 29.7398 28.1018 32.6766 29.324L58.6615 40.138Z" fill="black"/>
<path d="M44.6538 50.8723C46.7853 48.0319 46.1908 44.016 43.3259 41.9027C40.4611 39.7894 36.4107 40.3788 34.2792 43.2192L22.284 59.2039C20.1525 62.0444 20.747 66.0602 23.6118 68.1735C26.4767 70.2868 30.527 69.6974 32.6585 66.857L44.6538 50.8723Z" fill="black"/>
<path d="M10.9664 49.3408C7.67386 47.9706 3.88439 49.5061 2.50237 52.7706C1.12035 56.035 2.66912 59.7922 5.96164 61.1624L24.4906 68.8736C27.7831 70.2438 31.5726 68.7082 32.9546 65.4438C34.3366 62.1793 32.7878 58.4222 29.4953 57.0519L10.9664 49.3408Z" fill="black"/>
</svg>
