<svg width="32" height="32" viewBox="0 0 32 32" fill="none" xmlns="http://www.w3.org/2000/svg">
<path d="M29.9682 3.5556H2.03178C0.909744 3.5556 0 4.46529 0 5.58732V26.4128C0 27.5347 0.909744 28.4444 2.03178 28.4444H29.9682C31.0903 28.4444 32 27.5347 32 26.4127V5.58732C32 4.46529 31.0903 3.5556 29.9682 3.5556ZM29.9682 5.58732V20.3637L25.9641 16.7233C25.3623 16.1763 24.4368 16.1981 23.8618 16.7736L19.8094 20.8254L11.8192 11.2813C11.2152 10.56 10.1089 10.5529 9.49587 11.2655L2.03178 19.9401V5.58732H29.9682ZM21.3334 10.9207C21.3334 9.37753 22.5838 8.12699 24.1269 8.12699C25.6701 8.12699 26.9206 9.37753 26.9206 10.9207C26.9206 12.4638 25.6701 13.7143 24.1269 13.7143C22.5838 13.7143 21.3334 12.4638 21.3334 10.9207Z" fill="#838383"/>
</svg>

