<svg width="40" height="40" viewBox="0 0 40 40" fill="none" xmlns="http://www.w3.org/2000/svg">
<path d="M38.6884 13.7706C37.9978 12.5274 36.43 12.0794 35.1868 12.7701L31.1013 15.0399L28.4082 10.9212C28.3286 10.924 28.249 10.9272 28.1687 10.9272C25.4561 10.9272 23.1199 9.29037 22.0922 6.95318C18.9343 6.95295 13.6052 6.95264 13.6052 6.95264C12.6666 6.95264 11.8024 7.46334 11.3496 8.28545L8.08785 14.2081C7.40184 15.4539 7.85551 17.0199 9.10121 17.7059C9.49512 17.9229 9.92106 18.0258 10.3411 18.0258C11.2493 18.0258 12.13 17.5444 12.599 16.6926L15.1268 12.1027H19.99L12.5649 25.0639H3.56238C2.14027 25.0639 0.987305 26.2168 0.987305 27.639C0.987305 29.0611 2.1402 30.214 3.56238 30.214H14.0343C14.945 30.214 15.788 29.7331 16.2513 28.949L18.1011 25.8187L22.7711 29.4981L19.9711 36.4638C19.4407 37.7833 20.0804 39.283 21.4 39.8134C21.7149 39.94 22.0398 39.9999 22.3596 39.9999C23.38 39.9999 24.3458 39.3894 24.7497 38.3845L28.2689 29.6293C28.6953 28.5686 28.3713 27.3537 27.4733 26.6462L22.2953 22.5665L25.8754 16.4583L28.102 19.8637C28.5937 20.6156 29.416 21.0299 30.2592 21.0299C30.6832 21.0299 31.1128 20.925 31.5079 20.7055L37.688 17.2721C38.9311 16.5815 39.3791 15.0138 38.6884 13.7706Z" fill="#464545"/>
<path d="M28.1687 8.58359C30.539 8.58359 32.4605 6.66209 32.4605 4.2918C32.4605 1.9215 30.539 0 28.1687 0C25.7985 0 23.877 1.9215 23.877 4.2918C23.877 6.66209 25.7985 8.58359 28.1687 8.58359Z" fill="#464545"/>
</svg>
