<svg width="40" height="40" viewBox="0 0 40 40" fill="none" xmlns="http://www.w3.org/2000/svg">
<path fill-rule="evenodd" clip-rule="evenodd" d="M36.25 31.25H28.3317C25.8 31.25 23.7483 29.1984 23.7483 26.6667V23.3334C23.7483 20.8017 25.8 18.75 28.3317 18.75H36.25V16.6667C36.25 15.4517 35.7667 14.285 34.9083 13.425C34.0483 12.5667 32.8817 12.0834 31.6667 12.0834C25.895 12.0834 14.105 12.0834 8.33333 12.0834C7.11833 12.0834 5.95167 12.5667 5.09167 13.425C4.23333 14.285 3.75 15.4517 3.75 16.6667V33.3334C3.75 34.5484 4.23333 35.715 5.09167 36.575C5.95167 37.4334 7.11833 37.9167 8.33333 37.9167H31.6667C32.8817 37.9167 34.0483 37.4334 34.9083 36.575C35.7667 35.715 36.25 34.5484 36.25 33.3334V31.25ZM36.25 21.25V28.75H28.3317C27.1817 28.75 26.2483 27.8167 26.2483 26.6667V23.3334C26.2483 22.1834 27.1817 21.25 28.3317 21.25H36.25ZM29.1667 23.3334C30.0867 23.3334 30.8333 24.08 30.8333 25C30.8333 25.92 30.0867 26.6667 29.1667 26.6667C28.2467 26.6667 27.5 25.92 27.5 25C27.5 24.08 28.2467 23.3334 29.1667 23.3334Z" fill="#464545"/>
<path fill-rule="evenodd" clip-rule="evenodd" d="M26.8133 10.4167H31.6666C31.9849 10.4167 32.3016 10.4417 32.6133 10.4884L33.4033 8.79168C33.6949 8.16668 33.4249 7.42335 32.7999 7.13168L22.2249 2.20002C21.5999 1.90835 20.8566 2.18002 20.5649 2.80502L19.6699 4.72335L25.1699 7.28669C26.3866 7.85502 27.0283 9.15502 26.8133 10.4167Z" fill="#464545"/>
<path fill-rule="evenodd" clip-rule="evenodd" d="M9.45801 10.4167H25.0897C25.3497 9.80004 25.078 9.08337 24.4663 8.79837L13.8913 3.86671C13.2663 3.57504 12.523 3.84671 12.2313 4.47171L9.45801 10.4167Z" fill="#464545"/>
</svg>
