<svg width="40" height="40" viewBox="0 0 40 40" fill="none" xmlns="http://www.w3.org/2000/svg">
<path d="M38.3336 21.6664C38.7504 21.6664 39.1672 21.2496 39.1672 20.8328V15.8328C39.1672 14.416 38.084 13.3328 36.6672 13.3328H30V36.6664H36.6664C38.0832 36.6664 39.1664 35.5832 39.1664 34.1664V29.1664C39.166 28.9455 39.078 28.7337 38.9218 28.5774C38.7655 28.4212 38.5538 28.3332 38.3328 28.3328C37.4577 28.3193 36.6231 27.9621 36.009 27.3385C35.395 26.7149 35.0508 25.8748 35.0508 24.9996C35.0508 24.1244 35.395 23.2844 36.009 22.6607C36.6231 22.0371 37.4577 21.68 38.3328 21.6664H38.3336Z" fill="#464545"/>
<path d="M37.751 10.8336C38.1678 10.6672 38.4174 10.1672 38.251 9.75042L36.5838 5.00002C36.167 3.66642 34.6638 3.00002 33.4174 3.41682L9.75098 11.5832H36.4174C36.8126 11.2543 37.2645 11.0003 37.751 10.8336Z" fill="#464545"/>
<path d="M0.833984 15.8336V20.8336C0.833984 21.3336 1.16758 21.6672 1.66758 21.6672C2.10965 21.6604 2.54867 21.7415 2.95907 21.906C3.36947 22.0704 3.74307 22.3148 4.05811 22.625C4.37315 22.9352 4.62333 23.305 4.79411 23.7128C4.96488 24.1206 5.05283 24.5583 5.05283 25.0004C5.05283 25.4425 4.96488 25.8802 4.79411 26.2881C4.62333 26.6959 4.37315 27.0656 4.05811 27.3758C3.74307 27.686 3.36947 27.9304 2.95907 28.0949C2.54867 28.2593 2.10965 28.3405 1.66758 28.3336C1.16758 28.3336 0.833984 28.6672 0.833984 29.1672V34.1672C0.833984 35.584 1.91718 36.6672 3.33398 36.6672H28.334V13.3336H3.33398C1.92038 13.3336 0.833984 14.4168 0.833984 15.8336ZM10.834 20H15.834C16.334 20 16.6676 20.3336 16.6676 20.8336C16.6676 21.3336 16.334 21.6672 15.834 21.6672H10.834C10.334 21.6672 10.0004 21.3336 10.0004 20.8336C10.0004 20.3336 10.334 20 10.834 20ZM10.834 24.1664H21.6668C22.1668 24.1664 22.5004 24.5 22.5004 25C22.5004 25.5 22.1668 25.8336 21.6668 25.8336H10.834C10.334 25.8336 10.0004 25.5 10.0004 25C10.0004 24.5 10.334 24.1664 10.834 24.1664ZM10.834 28.3328H21.6668C22.1668 28.3328 22.5004 28.6664 22.5004 29.1664C22.5004 29.6664 22.1668 30 21.6668 30H10.834C10.334 30 10.0004 29.6664 10.0004 29.1664C10.0004 28.6664 10.334 28.3336 10.834 28.3336V28.3328Z" fill="#464545"/>
</svg>
