<svg width="48" height="48" viewBox="0 0 48 48" fill="none" xmlns="http://www.w3.org/2000/svg">
<path d="M30.954 25.7798L33.984 42.8318C34.0179 43.0326 33.9898 43.2389 33.9032 43.4233C33.8167 43.6076 33.676 43.7612 33.4999 43.8634C33.3237 43.9656 33.1206 44.0116 32.9176 43.9952C32.7146 43.9788 32.5215 43.9009 32.364 43.7718L25.204 38.3978C24.8583 38.1396 24.4384 38 24.007 38C23.5755 38 23.1556 38.1396 22.81 38.3978L15.638 43.7698C15.4806 43.8987 15.2877 43.9765 15.085 43.9929C14.8822 44.0093 14.6793 43.9634 14.5033 43.8615C14.3273 43.7596 14.1865 43.6064 14.0998 43.4225C14.0131 43.2385 13.9846 43.0324 14.018 42.8318L17.046 25.7798" stroke="white" stroke-width="4" stroke-linecap="round" stroke-linejoin="round"/>
<path d="M24 28C30.6274 28 36 22.6274 36 16C36 9.37258 30.6274 4 24 4C17.3726 4 12 9.37258 12 16C12 22.6274 17.3726 28 24 28Z" stroke="white" stroke-width="4" stroke-linecap="round" stroke-linejoin="round"/>
</svg>
