<svg width="360" height="360" viewBox="0 0 360 360" xmlns="http://www.w3.org/2000/svg">
  <rect width="360" height="360" fill="#ffffff" />
  <rect x="20" y="20" width="80" height="80" fill="#000000" />
  <rect x="260" y="20" width="80" height="80" fill="#000000" />
  <rect x="20" y="260" width="80" height="80" fill="#000000" />
  <rect x="120" y="120" width="40" height="40" fill="#000000" />
  <rect x="200" y="120" width="40" height="40" fill="#000000" />
  <rect x="120" y="200" width="40" height="40" fill="#000000" />
  <rect x="200" y="200" width="40" height="40" fill="#000000" />
  <rect x="160" y="160" width="40" height="40" fill="#000000" />
  <rect x="260" y="260" width="40" height="40" fill="#000000" />
  <rect x="140" y="40" width="40" height="40" fill="#000000" />
  <rect x="180" y="40" width="40" height="40" fill="#000000" />
  <rect x="40" y="140" width="40" height="40" fill="#000000" />
  <rect x="40" y="180" width="40" height="40" fill="#000000" />
  <rect x="280" y="140" width="40" height="40" fill="#000000" />
  <rect x="280" y="180" width="40" height="40" fill="#000000" />
  <rect x="140" y="280" width="40" height="40" fill="#000000" />
  <rect x="180" y="280" width="40" height="40" fill="#000000" />
</svg>

